<svg xmlns="http://www.w3.org/2000/svg" width="96.336" height="96.337" fill="#2b10bd"><path d="M92.456 64.241L66.18 48.168l26.275-16.073a2 2 0 00.662-2.75l-7.721-12.621a2 2 0 00-2.75-.663L57.564 31.405V2a2 2 0 00-2-2H40.771a2 2 0 00-2 2v29.405L13.688 16.062a2 2 0 00-2.75.663L3.217 29.346a2.004 2.004 0 00.662 2.75l26.276 16.072L3.879 64.241a1.998 1.998 0 00-.662 2.75l7.721 12.62a2 2 0 002.75.664l25.083-15.344v29.405a2 2 0 002 2h14.793a2 2 0 002-2V64.932l25.083 15.342a2.001 2.001 0 002.75-.662l7.721-12.621a2.004 2.004 0 00-.662-2.75z"/></svg>