<svg xmlns="http://www.w3.org/2000/svg" viewBox="0 0 511.984 511.984" width="33" height="33px"  fill="#2b10bd"><path d="M358.261 42.651H144.928c-5.888 0-10.667 4.779-10.667 10.667s4.779 10.667 10.667 10.667h213.333c5.909 0 10.667-4.779 10.667-10.667s-4.779-10.667-10.667-10.667z"/><path d="M160.011 53.317l35.136-35.115c4.16-4.16 4.16-10.923 0-15.083s-10.923-4.16-15.083 0l-42.667 42.667c-4.16 4.16-4.16 10.923 0 15.083l42.667 42.667c2.091 2.069 4.8 3.115 7.531 3.115s5.461-1.045 7.531-3.136c4.16-4.16 4.16-10.923 0-15.083l-35.115-35.115zM429.685 131.12c-14.571-14.571-37.504-15.808-53.461-3.627a40.776 40.776 0 00-10.475-17.771c-15.893-15.893-41.728-15.893-57.621 0L162.891 254.96l-13.525-86.144c-3.328-23.275-23.552-40.832-47.083-40.832-17.643 0-32 14.357-32 32v201.152c0 31.339 12.203 60.8 34.368 82.965l33.557 33.557c22.123 22.144 51.563 34.325 82.859 34.325 29.227 0 57.237-10.837 78.869-30.485l88.149-80.213c15.872-15.893 15.872-41.749-.128-57.749-5.077-5.077-11.157-8.533-17.643-10.325 12.224-15.957 11.008-38.976-3.691-53.675a40.507 40.507 0 00-17.216-10.24l80.405-80.427c15.873-15.893 15.873-41.749-.127-57.749zm-14.933 42.624l-128 128a10.716 10.716 0 00-3.115 7.552c0 2.731 1.024 5.461 3.115 7.552 4.16 4.16 10.923 4.16 15.083 0l22.251-22.251c7.573-7.552 19.883-7.573 27.584.128 7.573 7.573 7.573 19.883 0 27.456l-22.251 22.251c0 .021-.043.043-.064.064-4.096 4.181-4.075 10.88.064 15.019 4.16 4.16 10.923 4.16 15.083 0l.917-.917c7.339-7.339 20.011-7.445 27.584.128s7.573 19.883.363 27.115l-87.787 79.872c-17.685 16.064-40.597 24.939-64.512 24.939-25.6 0-49.685-9.963-67.797-28.075l-33.557-33.557c-18.133-18.133-28.117-42.24-28.117-67.883V159.984c0-5.888 4.779-10.667 10.667-10.667 12.971 0 24.128 9.685 25.984 22.677L145.1 278.917c.619 3.968 3.413 7.232 7.232 8.491 3.797 1.237 8 .213 10.837-2.603l160.064-160.064c7.573-7.552 19.883-7.573 27.584.128 7.573 7.573 7.573 19.883 0 27.456L244.085 259.056a10.716 10.716 0 00-3.115 7.552c0 2.731 1.024 5.461 3.115 7.552 4.16 4.16 10.923 4.16 15.083 0l128-128c7.573-7.573 19.883-7.573 27.584.128 7.573 7.573 7.573 19.883 0 27.456z"/></svg>